<?xml version="1.0" encoding="UTF-8"?>
<svg version="1.1" xmlns="http://www.w3.org/2000/svg" width="2000" height="2000">
<path d="M0 0 C660 0 1320 0 2000 0 C2000 660 2000 1320 2000 2000 C1340 2000 680 2000 0 2000 C0 1340 0 680 0 0 Z " fill="#FEFEFE" transform="translate(0,0)"/>
<path d="M0 0 C7.26 0 14.52 0 22 0 C22 117.15 22 234.3 22 355 C23.98 355.33 25.96 355.66 28 356 C39.85319163 362.05006656 45.09072886 370.09187052 50 382 C50.33 382.66 50.66 383.32 51 384 C51.9106143 397.38391248 49.40233708 408.19662421 41.75 419.25 C39 422 39 422 36.80184269 423.10206795 C34.0686589 424.48709299 32.12240553 425.77772625 30 428 C28.6488253 432.52110897 28.80327111 436.93435839 28.88647461 441.62451172 C28.87914484 443.01456726 28.86786186 444.40460671 28.85293579 445.79460144 C28.82368517 449.55729381 28.84957963 453.31780716 28.88552547 457.08036566 C28.91370158 461.01624674 28.89096423 464.9518292 28.87367249 468.88772583 C28.8486633 476.33581599 28.86931288 483.78304883 28.90644604 491.23106015 C28.94650196 499.71237946 28.93553813 508.19339408 28.92032993 516.6747663 C28.89019479 534.11691401 28.93073025 551.55794426 29 569 C17.12 569 5.24 569 -7 569 C-7 522.47 -7 475.94 -7 428 C-8.65 427.34 -10.3 426.68 -12 426 C-21.13962022 419.97929985 -26.46627755 410.25032429 -28.6875 399.75 C-29.80190007 386.37719917 -28.07290067 377.31286052 -20.06640625 366.33203125 C-15.76516701 361.47789169 -10.00099768 357.50141787 -4 355 C-2.68 355 -1.36 355 0 355 C0 237.85 0 120.7 0 0 Z " fill="#030303" transform="translate(989,687)"/>
</svg>
